<svg xmlns="http://www.w3.org/2000/svg" width="177.803" height="49.316"><defs><linearGradient id="a" x1=".5" x2=".5" y2="1" gradientUnits="objectBoundingBox"><stop offset="0" stop-color="#fff"/><stop offset="0" stop-color="#007adf"/><stop offset="1" stop-color="#00ecbc"/></linearGradient></defs><g data-name="Group 13651"><path data-name="Path 6595" d="M78.523 36.007v-.634a.28.28 0 01.279-.279h2.473a.28.28 0 01.279.279v9.519a.28.28 0 01-.279.279h-2.473a.28.28 0 01-.279-.279v-.6a4.263 4.263 0 01-2.976 1.132 4.6 4.6 0 01-3.542-1.534 5.409 5.409 0 01-1.387-3.8 5.237 5.237 0 011.387-3.761 4.616 4.616 0 013.542-1.5 4.149 4.149 0 012.976 1.168m23.113 1.771a2.355 2.355 0 102.355 2.355 2.355 2.355 0 00-2.355-2.355m-12.579 0a2.355 2.355 0 102.355 2.355 2.355 2.355 0 00-2.355-2.355m.621-2.939a4.564 4.564 0 013.542 1.534 5.294 5.294 0 011.388 3.743 5.469 5.469 0 01-1.406 3.779 4.523 4.523 0 01-3.505 1.534 4.076 4.076 0 01-2.866-1.1v4.7a.28.28 0 01-.279.279h-2.673a.28.28 0 01-.279-.279V35.374a.28.28 0 01.279-.279h2.619a.28.28 0 01.279.279v.652a3.948 3.948 0 012.9-1.187m12.579 0a4.563 4.563 0 013.542 1.534 5.293 5.293 0 011.388 3.743 5.469 5.469 0 01-1.406 3.779 4.523 4.523 0 01-3.505 1.534 4.076 4.076 0 01-2.866-1.1v4.7a.28.28 0 01-.279.279h-2.673a.28.28 0 01-.279-.279V35.374a.28.28 0 01.279-.279h2.619a.28.28 0 01.279.279v.652a3.948 3.948 0 012.9-1.187m-26.107 2.939a2.355 2.355 0 102.355 2.355 2.355 2.355 0 00-2.355-2.355" fill="#081633"/><path data-name="Path 6596" d="M16.032 10.922v-1.1a.593.593 0 01.592-.592h4.663a.593.593 0 01.592.592v17.757c0 11.129-14.089 12.987-20.776 7.8a.59.59 0 01-.174-.717l1.522-3.385a.568.568 0 01.378-.322.575.575 0 01.49.079c5.229 3.523 13.2 1.334 14.186-5.639.1-.676-.6-.828-.97-.255-1.995 3.073-6.335 5.066-9.635 2.812 1.677.115 4.088-.282 4.636-1.846.237-.676.127-1.415-.756-1.211-2.5.576-3.458-.015-5.174-.328s-2.9-.4-4.033.44A11.59 11.59 0 010 19.2 10.084 10.084 0 0110.333 8.716a7.949 7.949 0 015.7 2.206m71.533 3.714a4.744 4.744 0 104.744 4.744 4.744 4.744 0 00-4.744-4.744m79.463 6.251l3.877-11.277a.554.554 0 01.532-.38h5.8a.563.563 0 01.525.766l-7.573 19.569a17.014 17.014 0 01-4.027 6.472 9.019 9.019 0 01-9.794 1.212.556.556 0 01-.279-.622l1-4.26a.563.563 0 01.759-.393 5.436 5.436 0 002.046.423q2.39 0 3.9-2.942l.11-.257-8.476-19.177a.563.563 0 01.515-.79h6.215a.554.554 0 01.525.36zm-18.876-9.818V9.793a.564.564 0 01.562-.562h4.979a.563.563 0 01.562.562v19.173a.563.563 0 01-.562.562h-4.979a.564.564 0 01-.562-.562v-1.2a8.588 8.588 0 01-5.994 2.28 9.265 9.265 0 01-7.134-3.089 10.894 10.894 0 01-2.795-7.648 10.549 10.549 0 012.795-7.575 9.3 9.3 0 017.134-3.015 8.357 8.357 0 015.994 2.353m-35.995 18.42a.554.554 0 00.531-.376l3.655-10.4 3.691 10.4a.554.554 0 00.53.374h4.974a.555.555 0 00.532-.381L132.6 9.975a.562.562 0 00-.532-.744h-5.632a.556.556 0 00-.54.4l-3.338 11.4-3.806-11.416a.555.555 0 00-.534-.385h-3.746a.555.555 0 00-.535.388L110.2 21.034l-3.374-11.4a.556.556 0 00-.539-.4h-5.633a.563.563 0 00-.533.744l6.529 19.136a.555.555 0 00.532.381zM92.345 11.069V9.793a.564.564 0 01.562-.562h4.979a.564.564 0 01.563.562v19.173a.564.564 0 01-.563.562h-4.978a.564.564 0 01-.562-.562v-1.2a8.588 8.588 0 01-5.994 2.28 9.265 9.265 0 01-7.134-3.089 10.894 10.894 0 01-2.795-7.648 10.549 10.549 0 012.795-7.575 9.3 9.3 0 017.134-3.015 8.357 8.357 0 015.994 2.353m-17.587 7.8a15.871 15.871 0 01-.148 2.123.56.56 0 01-.557.487h-14q1.1 3.2 4.964 3.2a10.838 10.838 0 005.654-1.582.562.562 0 01.775.2l1.984 3.422a.562.562 0 01-.175.75 15.045 15.045 0 01-8.536 2.498q-5.369 0-8.31-3.052a10.515 10.515 0 01-2.9-7.538 10.318 10.318 0 013.015-7.612 10.6 10.6 0 017.832-3.052 10.564 10.564 0 017.465 2.721 9.622 9.622 0 012.942 7.428M64.352 13.9a4.2 4.2 0 00-4.376 3.126h8.6a4.145 4.145 0 00-1.508-2.3 4.406 4.406 0 00-2.721-.827m-21.079 6.915L39.138 9.6a.554.554 0 00-.528-.368h-5.889a.563.563 0 00-.517.784l8.2 19.136a.552.552 0 00.517.341H45.4a.553.553 0 00.517-.34l8.231-19.136a.563.563 0 00-.517-.785h-5.848a.554.554 0 00-.53.374zM27.677 7.429a3.646 3.646 0 01-3.751-3.751 3.5 3.5 0 011.085-2.629A3.69 3.69 0 0127.677 0a3.628 3.628 0 012.648 1.048 3.534 3.534 0 011.066 2.629 3.64 3.64 0 01-1.066 2.684 3.6 3.6 0 01-2.648 1.066m3.273 2.366v19.173a.564.564 0 01-.562.562H25a.564.564 0 01-.563-.562V9.793A.564.564 0 0125 9.231h5.383a.564.564 0 01.562.562m-19.808 4.88a4.652 4.652 0 104.652 4.652 4.652 4.652 0 00-4.652-4.652m132.23-.037a4.744 4.744 0 104.744 4.744 4.744 4.744 0 00-4.744-4.744" transform="translate(0 -.001)" fill="url(#a)"/></g></svg>