<svg xmlns="http://www.w3.org/2000/svg" width="195.521" height="54.23"><g fill="#fff"><path data-name="Path 6595" d="M87.87 41.546v-.6a.266.266 0 01.266-.266h2.356a.266.266 0 01.266.266v9.072a.266.266 0 01-.266.266h-2.356a.267.267 0 01-.266-.266v-.569a4.063 4.063 0 01-2.836 1.079 4.384 4.384 0 01-3.376-1.462 5.155 5.155 0 01-1.322-3.619 4.991 4.991 0 011.322-3.584 4.4 4.4 0 013.376-1.427 3.954 3.954 0 012.836 1.113m22.027 1.688a2.244 2.244 0 102.245 2.244 2.245 2.245 0 00-2.245-2.244m-11.988 0a2.244 2.244 0 102.245 2.244 2.245 2.245 0 00-2.245-2.244m.592-2.8a4.349 4.349 0 013.375 1.461 5.045 5.045 0 011.322 3.567 5.212 5.212 0 01-1.34 3.6 4.31 4.31 0 01-3.34 1.462 3.885 3.885 0 01-2.732-1.044v4.484a.266.266 0 01-.266.266h-2.548a.267.267 0 01-.266-.266V40.938a.267.267 0 01.266-.266h2.5a.266.266 0 01.266.266v.621a3.762 3.762 0 012.766-1.131m11.988 0a4.349 4.349 0 013.375 1.461 5.045 5.045 0 011.322 3.567 5.212 5.212 0 01-1.34 3.6 4.31 4.31 0 01-3.34 1.462 3.885 3.885 0 01-2.732-1.044v4.484a.266.266 0 01-.266.266h-2.551a.266.266 0 01-.266-.266v-13.02a.266.266 0 01.266-.266h2.5a.266.266 0 01.266.266v.621a3.762 3.762 0 012.766-1.131m-24.88 2.8a2.244 2.244 0 102.245 2.244 2.245 2.245 0 00-2.245-2.244"/><path data-name="Path 6596" d="M17.63 12.477v-1.256a.665.665 0 01.651-.676h5.128a.665.665 0 01.651.676v20.286c0 12.714-15.493 14.837-22.846 8.912a.691.691 0 01-.192-.819l1.674-3.867a.631.631 0 01.416-.367.612.612 0 01.539.091c5.75 4.025 14.515 1.524 15.6-6.443.105-.772-.657-.946-1.067-.291-2.193 3.508-6.969 5.786-10.6 3.21 1.845.131 4.5-.322 5.1-2.109.261-.772.14-1.616-.831-1.384-2.745.658-3.8-.017-5.69-.375s-3.186-.452-4.435.5A13.638 13.638 0 010 21.929C0 15.085 4.725 9.956 11.363 9.956a8.565 8.565 0 016.268 2.521m78.661 4.243a5.423 5.423 0 105.216 5.419 5.321 5.321 0 00-5.216-5.419m87.382 7.142l4.264-12.884a.612.612 0 01.585-.434h6.377a.6.6 0 01.51.279.646.646 0 01.067.6l-8.327 22.354a19.551 19.551 0 01-4.428 7.394 8.893 8.893 0 01-6.368 2.437 8.791 8.791 0 01-4.4-1.052.645.645 0 01-.306-.711l1.1-4.866a.62.62 0 01.318-.424.58.58 0 01.517-.025 5.786 5.786 0 002.25.483q2.628 0 4.286-3.361l.121-.294-9.321-21.909a.647.647 0 01.048-.61.6.6 0 01.518-.292h6.834a.61.61 0 01.577.412zm-20.758-11.217v-1.458a.632.632 0 01.618-.643h5.475a.632.632 0 01.618.643v21.9a.632.632 0 01-.618.643h-5.475a.632.632 0 01-.618-.643v-1.369a9.247 9.247 0 01-6.591 2.6 10.016 10.016 0 01-7.844-3.529 12.733 12.733 0 01-3.073-8.738 12.325 12.325 0 013.072-8.652 10.044 10.044 0 017.844-3.445 9.007 9.007 0 016.591 2.689m-39.581 21.05a.612.612 0 00.584-.43l4.02-11.879L132 33.265a.611.611 0 00.583.428h5.469a.612.612 0 00.585-.435l7.18-21.863a.645.645 0 00-.082-.581.6.6 0 00-.5-.269h-6.193a.615.615 0 00-.594.462l-3.671 13.023-4.186-13.046a.612.612 0 00-.587-.439h-4.12a.613.613 0 00-.588.443l-4.106 13.043-3.71-13.025a.615.615 0 00-.593-.46h-6.194a.6.6 0 00-.5.269.645.645 0 00-.083.581l7.18 21.863a.612.612 0 00.585.435zm-21.786-21.048v-1.458a.632.632 0 01.619-.643h5.475a.632.632 0 01.619.643v21.9a.632.632 0 01-.619.643h-5.475a.632.632 0 01-.619-.643v-1.369a9.247 9.247 0 01-6.591 2.6 10.016 10.016 0 01-7.844-3.529 12.733 12.733 0 01-3.073-8.738 12.325 12.325 0 013.072-8.652 10.044 10.044 0 017.844-3.445 9.007 9.007 0 016.591 2.689m-19.34 8.906a18.83 18.83 0 01-.163 2.426.624.624 0 01-.613.557h-15.4q1.213 3.655 5.459 3.655a11.584 11.584 0 006.222-1.8.579.579 0 01.472-.071.6.6 0 01.38.3l2.182 3.909a.657.657 0 01-.192.857 16.1 16.1 0 01-9.388 2.849q-5.9 0-9.139-3.487a12.274 12.274 0 01-3.194-8.612 12.035 12.035 0 013.316-8.7 11.429 11.429 0 018.613-3.487 11.366 11.366 0 018.208 3.109 11.217 11.217 0 013.235 8.486m-11.44-5.66a4.641 4.641 0 00-4.812 3.571h9.462a4.542 4.542 0 00-4.65-3.571m-23.185 7.9l-4.542-12.815a.61.61 0 00-.58-.421h-6.476a.6.6 0 00-.516.289.647.647 0 00-.052.607l9.012 21.859a.607.607 0 00.569.39h4.927a.608.608 0 00.568-.389l9.051-21.863a.647.647 0 00-.052-.607.6.6 0 00-.517-.289h-6.427a.611.611 0 00-.583.427zM30.435 8.486a3.925 3.925 0 01-2.952-1.218 4.245 4.245 0 01-1.172-3.069 4.082 4.082 0 011.193-3 3.977 3.977 0 012.931-1.2 3.912 3.912 0 012.912 1.2 4.119 4.119 0 011.173 3 4.245 4.245 0 01-1.173 3.067 3.878 3.878 0 01-2.912 1.218m3.6 2.7v21.9a.632.632 0 01-.619.643H27.5a.632.632 0 01-.619-.643v-21.9a.632.632 0 01.619-.643h5.92a.632.632 0 01.619.643m-21.787 5.578a5.318 5.318 0 000 10.629 5.318 5.318 0 000-10.629m145.407-.042a5.423 5.423 0 105.216 5.419 5.321 5.321 0 00-5.216-5.419"/></g></svg>